<mxfile host="Electron" agent="Mozilla/5.0 (Macintosh; Intel Mac OS X 10_15_7) AppleWebKit/537.36 (KHTML, like Gecko) draw.io/25.0.2 Chrome/128.0.6613.186 Electron/32.2.5 Safari/537.36" version="25.0.2">
  <diagram name="Page-1" id="e7e014a7-5840-1c2e-5031-d8a46d1fe8dd">
    <mxGraphModel dx="954" dy="608" grid="1" gridSize="10" guides="1" tooltips="1" connect="1" arrows="1" fold="1" page="1" pageScale="1" pageWidth="1169" pageHeight="826" background="none" math="0" shadow="0">
      <root>
        <mxCell id="0" />
        <mxCell id="1" parent="0" />
        <mxCell id="cUz_vMkqwMFt1SvoV0Q7-45" value="MyDate" style="swimlane;fontStyle=0;childLayout=stackLayout;horizontal=1;startSize=26;fillColor=none;horizontalStack=0;resizeParent=1;resizeParentMax=0;resizeLast=0;collapsible=1;marginBottom=0;whiteSpace=wrap;html=1;" vertex="1" parent="1">
          <mxGeometry x="500" y="330" width="220" height="210" as="geometry" />
        </mxCell>
        <mxCell id="cUz_vMkqwMFt1SvoV0Q7-46" value="- year: int&lt;div&gt;- month: int&lt;/div&gt;&lt;div&gt;- day: int&lt;/div&gt;" style="text;strokeColor=none;fillColor=none;align=left;verticalAlign=top;spacingLeft=4;spacingRight=4;overflow=hidden;rotatable=0;points=[[0,0.5],[1,0.5]];portConstraint=eastwest;whiteSpace=wrap;html=1;" vertex="1" parent="cUz_vMkqwMFt1SvoV0Q7-45">
          <mxGeometry y="26" width="220" height="54" as="geometry" />
        </mxCell>
        <mxCell id="cUz_vMkqwMFt1SvoV0Q7-49" value="" style="endArrow=none;html=1;rounded=0;" edge="1" parent="cUz_vMkqwMFt1SvoV0Q7-45">
          <mxGeometry width="50" height="50" relative="1" as="geometry">
            <mxPoint y="83" as="sourcePoint" />
            <mxPoint x="220" y="83" as="targetPoint" />
          </mxGeometry>
        </mxCell>
        <mxCell id="cUz_vMkqwMFt1SvoV0Q7-51" value="" style="endArrow=none;html=1;rounded=0;" edge="1" parent="cUz_vMkqwMFt1SvoV0Q7-45">
          <mxGeometry width="50" height="50" relative="1" as="geometry">
            <mxPoint y="140" as="sourcePoint" />
            <mxPoint x="220" y="140" as="targetPoint" />
          </mxGeometry>
        </mxCell>
        <mxCell id="cUz_vMkqwMFt1SvoV0Q7-47" value="+ MyDate()&lt;div&gt;+ MyDate(elapsedTime: long)&lt;/div&gt;&lt;div&gt;+ MyDate(year: int, month: int, day: int)&lt;/div&gt;&lt;div&gt;&lt;br&gt;&lt;/div&gt;&lt;div&gt;+ getYear(): int&lt;/div&gt;&lt;div&gt;+ getMonth(): int&lt;/div&gt;&lt;div&gt;+ getDay(): int&lt;/div&gt;&lt;div&gt;+setDate(elapsedTime: long): void&lt;/div&gt;&lt;div&gt;&lt;br&gt;&lt;/div&gt;" style="text;strokeColor=none;fillColor=none;align=left;verticalAlign=top;spacingLeft=4;spacingRight=4;overflow=hidden;rotatable=0;points=[[0,0.5],[1,0.5]];portConstraint=eastwest;whiteSpace=wrap;html=1;" vertex="1" parent="cUz_vMkqwMFt1SvoV0Q7-45">
          <mxGeometry y="80" width="220" height="130" as="geometry" />
        </mxCell>
      </root>
    </mxGraphModel>
  </diagram>
</mxfile>
